<svg xmlns="http://www.w3.org/2000/svg" version="1.1" xmlns:xlink="http://www.w3.org/1999/xlink" xmlns:svgjs="http://svgjs.dev/svgjs" width="1000" height="1000" viewBox="0 0 1000 1000"><rect width="1000" height="1000" fill="#000000"></rect><g transform="matrix(0.7,0,0,0.7,149.4828828828829,54.2421595744683)"><svg viewBox="0 0 111 141" data-background-color="#ffffff" preserveAspectRatio="xMidYMid meet" height="1270" width="1000" xmlns="http://www.w3.org/2000/svg" xmlns:xlink="http://www.w3.org/1999/xlink"><g id="tight-bounds" transform="matrix(1,0,0,1,0.08199999999999363,0.19949999999997203)"><svg viewBox="0 0 110.83550823529413 140.60052000000002" height="140.60052000000002" width="110.83550823529413"><g><svg viewBox="0 0 110.83550823529413 140.60052000000002" height="140.60052000000002" width="110.83550823529413"><g><svg viewBox="0 0 110.83550823529413 140.60052000000002" height="140.60052000000002" width="110.83550823529413"><g><path d="M0 140.601v-140.601h110.836v140.601z" fill="#ffffff" stroke="transparent" stroke-width="0" rx="0%" data-fill-palette-color="tertiary"></path><path d="M3.283 137.317v-134.034h104.269v134.034z" fill="#000000" stroke="transparent" stroke-width="0" rx="0%" data-fill-palette-color="quaternary"></path><path d="M9.85 130.751v-120.901h91.136v120.901z" fill="#ffffff" stroke="transparent" stroke-width="0" data-fill-palette-color="tertiary"></path></g><g transform="matrix(1,0,0,1,19.69974,19.69974)" id="textblocktransform"><svg viewBox="0 0 71.43602823529413 101.20104000000002" height="101.20104000000002" width="71.43602823529413" id="textblock"><g><svg viewBox="0 0 71.43602823529413 101.20104000000002" height="101.20104000000002" width="71.43602823529413"><g transform="matrix(1,0,0,1,0,0)"><svg width="71.43602823529413" viewBox="1.95 -32.23 22.85 32.379999999999995" height="101.20104000000002" data-palette-color="#ffffff"><path d="M2.15-32.13L8.01-32.03Q9.47-32.03 11.47-32.13 13.48-32.23 14.89-32.23L14.89-32.23Q16.5-32.23 18.14-31.74 19.78-31.25 21.31-30.27 22.85-29.3 23.83-27.49 24.8-25.68 24.8-23.29L24.8-23.29Q24.8-21.88 24.19-20.24 23.58-18.6 22.41-17.07 21.24-15.53 19.26-14.53 17.29-13.53 14.84-13.53L14.84-13.53Q12.11-13.53 11.08-14.89L11.08-14.89Q10.79-15.23 10.94-16.02L10.94-16.02Q10.99-16.21 11.08-16.16L11.08-16.16Q12.55-15.63 14.36-15.63L14.36-15.63Q16.8-15.63 18.55-17.68 20.31-19.73 20.31-22.56L20.31-22.56Q20.31-26.03 18.8-28.05 17.29-30.08 14.11-30.08L14.11-30.08Q11.91-30.08 10.69-29.74L10.69-29.74Q10.45-29.69 10.35-29.37 10.25-29.05 10.18-27.88 10.11-26.71 10.11-24.37L10.11-24.37 10.11-6.93Q10.11-3.66 10.5-2.69L10.5-2.69Q10.74-2.05 12.23-1.66 13.72-1.27 14.36-1.27L14.36-1.27Q14.55-1.27 14.55-0.59L14.55-0.59Q14.55-0.15 14.45 0.15L14.45 0.15Q9.57-0.1 8.11-0.1L8.11-0.1 2.15 0.15Q2 0 2-0.73L2-0.73Q2-1.37 2.15-1.37L2.15-1.37Q2.83-1.37 4.05-1.66 5.27-1.95 5.52-2.39L5.52-2.39Q5.86-2.98 5.86-6.98L5.86-6.98 5.86-25.44Q5.86-28.32 5.52-29.64L5.52-29.64Q5.37-30.03 4.08-30.37 2.78-30.71 2.15-30.71L2.15-30.71Q1.95-30.71 1.95-31.3L1.95-31.3Q1.95-31.93 2.15-32.13L2.15-32.13Z" opacity="1" transform="matrix(1,0,0,1,0,0)" fill="#000000" class="wordmark-text-0" data-fill-palette-color="quaternary" id="text-0"></path></svg></g></svg></g></svg></g></svg></g><g></g></svg></g><defs></defs></svg><rect width="110.83550823529413" height="140.60052000000002" fill="none" stroke="none" visibility="hidden"></rect></g></svg></g></svg>